HIERARCHY
ROOT Hips
{
	OFFSET -3.958830 18.904000 13.208200
	CHANNELS 6 Xposition Yposition Zposition Zrotation Yrotation Xrotation 
	JOINT LHipJoint
	{
		OFFSET 0.000000 0.000000 0.000000
		CHANNELS 3 Zrotation Yrotation Xrotation
		JOINT LeftUpLeg
		{
			OFFSET 1.800000 -1.400000 0.085000
			CHANNELS 3 Zrotation Yrotation Xrotation
			JOINT LeftLeg
			{
				OFFSET 2.215000 -6.000000 0.000000
				CHANNELS 3 Zrotation Yrotation Xrotation
				JOINT LeftFoot
				{
					OFFSET 2.500000 -6.900000 0.000000
					CHANNELS 3 Zrotation Yrotation Xrotation
					JOINT LeftToeBase
					{
						OFFSET 0.200000 -0.500000 1.950000
						CHANNELS 3 Zrotation Yrotation Xrotation
						End Site
						{
							OFFSET 0.000000 0.000000 0.000000
						}
					}
				}
			}
		}
	}
	JOINT RHipJoint
	{
		OFFSET 0.000000 0.000000 0.000000
		CHANNELS 3 Zrotation Yrotation Xrotation
		JOINT RightUpLeg
		{
			OFFSET -1.800000 -1.400000 0.085000
			CHANNELS 3 Zrotation Yrotation Xrotation
			JOINT RightLeg
			{
				OFFSET -2.215000 -6.000000 0.000000
				CHANNELS 3 Zrotation Yrotation Xrotation
				JOINT RightFoot
				{
					OFFSET -2.500000 -6.900000 0.000000
					CHANNELS 3 Zrotation Yrotation Xrotation
					JOINT RightToeBase
					{
						OFFSET -0.200000 -0.500000 1.950000
						CHANNELS 3 Zrotation Yrotation Xrotation
						End Site
						{
							OFFSET 0.000000 0.000000 0.000000
						}
					}
				}
			}
		}
	}
	JOINT LowerBack
	{
		OFFSET 0.000000 0.000000 0.000000
		CHANNELS 3 Zrotation Yrotation Xrotation
		JOINT Spine
		{
			OFFSET -0.087000 1.940000 -0.288900
			CHANNELS 3 Zrotation Yrotation Xrotation
			JOINT Spine1
			{
				OFFSET 0.000000 1.950000 0.060000
				CHANNELS 3 Zrotation Yrotation Xrotation
				JOINT Neck
				{
					OFFSET 0.000000 0.000000 0.000000
					CHANNELS 3 Zrotation Yrotation Xrotation
					JOINT Neck1
					{
						OFFSET 0.000000 1.600000 0.340000
						CHANNELS 3 Zrotation Yrotation Xrotation
						JOINT Head
						{
							OFFSET 0.000000 1.667000 -0.240000
							CHANNELS 3 Zrotation Yrotation Xrotation
							End Site
							{
								OFFSET 0.000000 0.000000 0.000000
							}
						}
					}
				}
				JOINT LeftShoulder
				{
					OFFSET 0.000000 0.000000 0.000000
					CHANNELS 3 Zrotation Yrotation Xrotation
					JOINT LeftArm
					{
						OFFSET 2.700000 1.550000 -0.730000
						CHANNELS 3 Zrotation Yrotation Xrotation
						JOINT LeftForeArm
						{
							OFFSET 5.450000 0.000000 0.000000
							CHANNELS 3 Zrotation Yrotation Xrotation
							JOINT LeftHand
							{
								OFFSET 3.450000 0.000000 0.000000
								CHANNELS 3 Zrotation Yrotation Xrotation
								JOINT LeftHandIndex1
								{
									OFFSET 0.750000 0.000000 0.000000
									CHANNELS 3 Zrotation Yrotation Xrotation
									End Site
									{
										OFFSET 0.000000 0.000000 0.000000
									}
								}
							}
						}
					}
				}
				JOINT RightShoulder
				{
					OFFSET 0.000000 0.000000 0.000000
					CHANNELS 3 Zrotation Yrotation Xrotation
					JOINT RightArm
					{
						OFFSET -2.700000 1.550000 -0.730000
						CHANNELS 3 Zrotation Yrotation Xrotation
						JOINT RightForeArm
						{
							OFFSET -5.450000 0.000000 0.000000
							CHANNELS 3 Zrotation Yrotation Xrotation
							JOINT RightHand
							{
								OFFSET -3.450000 0.000000 0.000000
								CHANNELS 3 Zrotation Yrotation Xrotation
								JOINT RightHandIndex1
								{
									OFFSET -0.750000 0.000000 0.000000
									CHANNELS 3 Zrotation Yrotation Xrotation
									End Site
									{
										OFFSET 0.000000 0.000000 0.000000
									}
								}
							}
						}
					}
				}
			}
		}
	}
}
MOTION
Frames: 7
Frame Time: 0.016667
-2.000790 17.315030 2.788310 -5.261689 -15.674164 -0.345438 -15.561712 11.567924 5.807492 19.782011 -2.294216 -44.980477 -16.755824 17.107544 39.066279 0.065236 10.368477 1.009356 -0.888850 -1.305280 -0.868500 18.187478 -9.511452 2.540542 -6.808012 8.835642 -20.976082 3.483706 -11.130074 53.886608 -0.843278 -8.462945 1.671636 -0.649360 1.149490 0.101260 -2.916919 -2.077777 -9.194461 4.370527 5.463548 35.758840 -4.144506 9.361010 -11.205388 2.415465 -5.252457 -10.560317 -11.551222 3.807541 35.521374 4.045700 -3.238840 0.392040 -2.490429 11.400144 1.048660 -46.434718 0.223452 -5.800860 75.039594 -56.691294 -40.271110 -4.044015 1.660275 0.730200 0.418130 -0.464750 0.039930 -1.904315 -1.407532 7.206575 45.104554 -9.227369 -18.495888 -54.885414 60.653123 -25.939667 1.233801 -0.258155 -0.800040 0.686250 0.954540 -0.037060 
-2.002380 17.306190 2.782510 -5.305759 -15.727913 -0.281275 -15.569176 11.535079 5.825063 19.932033 -2.246105 -45.160483 -16.792260 17.208090 39.198730 0.082705 10.397370 0.995317 -0.893350 -1.300410 -0.866490 18.189533 -9.475263 2.561291 -6.739214 8.963475 -21.199366 3.572002 -11.223136 54.199939 -0.853294 -8.516726 1.652339 -0.649310 1.137110 0.092160 -2.914952 -2.073443 -9.215272 4.323212 5.448809 35.966886 -4.152555 9.350303 -11.356383 2.453527 -5.112695 -10.595318 -11.237404 3.774012 35.490856 3.765420 -2.947240 0.537310 -2.721714 11.087139 1.072699 -45.746634 0.597631 -5.959367 74.568243 -56.544493 -39.742095 -4.037974 1.673967 0.718640 0.414960 -0.464490 0.031480 -1.742025 -1.181605 7.253097 45.071940 -9.162371 -18.306376 -55.257792 59.621456 -25.649912 1.264523 -0.282266 -0.795050 0.678960 0.951010 -0.037510 
-2.004230 17.290730 2.769930 -5.467018 -15.811630 -0.193807 -15.574843 11.475603 5.847454 20.185520 -2.146430 -45.460408 -16.751246 17.321504 39.448069 0.107618 10.449841 0.977379 -0.891810 -1.288480 -0.867320 18.199298 -9.415812 2.602846 -6.638027 9.198241 -21.517358 3.938325 -11.499506 54.632178 -0.884598 -8.622822 1.615543 -0.648130 1.131390 0.095730 -2.932249 -2.051164 -9.247768 4.456718 5.354344 36.400029 -4.264705 9.321606 -11.532200 2.456067 -4.978557 -10.600705 -10.893454 3.780374 35.341493 3.594860 -2.657770 0.494920 -3.320307 10.453964 1.045883 -44.291311 1.153096 -6.205152 73.431189 -55.972139 -38.437527 -4.037871 1.718076 0.707140 0.414620 -0.458090 0.032240 -1.161531 -0.675910 7.313016 44.647296 -9.229928 -18.059874 -55.873902 58.220265 -25.345968 1.298454 -0.314398 -0.783150 0.670890 0.944950 -0.031100 
-2.011510 17.271390 2.749190 -5.517757 -15.784104 -0.234353 -15.573505 11.414461 5.859669 20.331513 -2.133402 -45.715713 -16.605198 17.393301 39.808042 0.123864 10.498874 0.960895 -0.887010 -1.277210 -0.860940 18.211491 -9.379879 2.643062 -6.598795 9.387222 -21.761393 4.376901 -11.836396 55.035469 -0.923200 -8.739828 1.574492 -0.647410 1.123490 0.105540 -2.960779 -1.987735 -9.274349 4.462128 5.215986 37.076834 -4.593389 9.182911 -11.770407 2.514739 -4.585665 -10.596498 -10.043462 3.658775 35.277619 3.180780 -2.143180 0.232060 -4.218890 9.465760 0.949007 -41.891455 1.846232 -6.452688 72.009706 -55.064763 -36.686695 -4.042457 1.770413 0.705090 0.415440 -0.447100 0.032340 -0.423920 -0.048654 7.433771 44.505879 -9.265799 -17.874897 -56.644522 56.616080 -25.098009 1.329408 -0.348207 -0.773120 0.661760 0.939060 -0.030580 
-2.020210 17.249790 2.724060 -5.441448 -15.735047 -0.381495 -15.568943 11.369139 5.867242 20.386345 -2.200366 -45.862046 -16.579011 17.445770 40.044956 0.137632 10.526875 0.953790 -0.879670 -1.261450 -0.852800 18.221179 -9.358483 2.668842 -6.763170 9.484880 -21.874975 4.974933 -12.250401 55.251672 -0.955249 -8.842593 1.541851 -0.641840 1.115940 0.104440 -2.987893 -1.940644 -9.289972 4.332759 5.060635 37.822040 -4.863278 8.962764 -11.981368 2.531170 -4.313564 -10.566686 -9.461045 3.679210 35.243876 2.951730 -1.682460 -0.054030 -5.269006 8.424209 0.841931 -39.340162 2.496694 -6.625722 70.419442 -53.808087 -34.650215 -4.048344 1.824787 0.702260 0.413420 -0.439430 0.033890 0.571152 0.669950 7.526827 43.969756 -9.428201 -17.719728 -57.104190 55.444493 -24.884110 1.351980 -0.369652 -0.767960 0.661650 0.930200 -0.030690 
-2.027780 17.229160 2.694710 -5.272322 -15.830129 -0.691128 -15.562333 11.344309 5.867464 20.403531 -2.253947 -45.873879 -16.616314 17.510874 40.240293 0.164198 10.542723 0.947818 -0.864460 -1.233250 -0.845870 18.228131 -9.349666 2.682856 -7.043122 9.551478 -21.836146 5.554789 -12.637615 55.408542 -0.988665 -8.938075 1.511401 -0.636010 1.101770 0.109070 -3.011761 -1.908325 -9.297261 4.119556 4.952855 38.762706 -5.128067 8.761685 -12.263470 2.554705 -4.175215 -10.590112 -9.166016 3.807022 35.279418 2.788230 -1.255750 -0.332060 -6.210663 7.446486 0.762678 -36.994332 3.054173 -6.747105 68.470882 -52.436763 -32.377323 -4.050353 1.896816 0.694410 0.407810 -0.425840 0.039350 1.481162 1.467000 7.666717 43.446814 -9.638055 -17.627992 -57.415973 54.613915 -24.739117 1.371629 -0.392097 -0.749180 0.650940 0.914890 -0.024750 
-2.034740 17.210790 2.661290 -5.155893 -15.966648 -1.258028 -15.544968 11.340432 5.851145 20.474971 -2.259427 -45.632788 -16.612865 17.564932 40.460066 0.195128 10.559052 0.939806 -0.854730 -1.209740 -0.841610 18.238955 -9.367476 2.686395 -7.340475 9.572713 -21.508566 6.138574 -13.024094 55.504090 -1.023527 -9.023513 1.478662 -0.633690 1.086160 0.113400 -3.054099 -1.862178 -9.295617 4.097105 4.758071 39.990644 -5.551178 8.574091 -12.461235 2.569888 -4.143701 -10.743725 -9.115414 4.005084 35.462995 2.924050 -0.992230 -0.698560 -6.933567 6.368384 0.788585 -34.926816 3.478898 -6.879316 66.668352 -51.115127 -30.399480 -4.047025 1.957800 0.688900 0.395780 -0.407080 0.042080 2.200377 2.457797 7.911141 43.067917 -9.911805 -17.714859 -57.587771 54.063521 -24.681571 1.390900 -0.401906 -0.729850 0.642070 0.902790 -0.015780 
